HIERARCHY
ROOT hip
{
	OFFSET 0.000000 0.000000 0.000000 
	CHANNELS 6 Xposition Yposition Zposition Xrotation Zrotation Yrotation
	JOINT abdomen
	{
		OFFSET 0.000000 3.402643 0.000000 
		CHANNELS 3 Xrotation Zrotation Yrotation
		JOINT chest
		{
			OFFSET 0.000000 8.438565 -0.680529 
			CHANNELS 3 Xrotation Zrotation Yrotation
			JOINT neck
			{
				OFFSET 0.000000 10.207942 -0.272212 
				CHANNELS 3 Xrotation Zrotation Yrotation
				JOINT head
				{
					OFFSET 0.000000 3.130431 0.000000 
					CHANNELS 3 Xrotation Zrotation Yrotation
					End Site
					{
						OFFSET 0.000000 3.130435 0.000000 
					}
				}
			}
			JOINT lCollar
			{
				OFFSET 3.470700 6.669187 -0.816635 
				CHANNELS 3 Yrotation Zrotation Xrotation
				JOINT lShldr
				{
					OFFSET 3.198488 0.000000 0.000000 
					CHANNELS 3 Zrotation Yrotation Xrotation
					JOINT lForeArm
					{
						OFFSET 10.139888 0.000000 0.000000 
						CHANNELS 3 Yrotation Zrotation Xrotation
						JOINT lHand
						{
							OFFSET 8.370511 0.000000 0.000000 
							CHANNELS 3 Zrotation Yrotation Xrotation
							End Site
							{
								OFFSET 4.083176 0.000000 0.000000 
							}
						}
					}
				}
			}
			JOINT rCollar
			{
				OFFSET -3.470700 6.669187 -0.816635 
				CHANNELS 3 Yrotation Zrotation Xrotation
				JOINT rShldr
				{
					OFFSET -3.198488 0.000000 0.000000 
					CHANNELS 3 Zrotation Yrotation Xrotation
					JOINT rForeArm
					{
						OFFSET -10.139888 0.000000 0.000000 
						CHANNELS 3 Yrotation Zrotation Xrotation
						JOINT rHand
						{
							OFFSET -8.370511 0.000000 0.000000 
							CHANNELS 3 Zrotation Yrotation Xrotation
							End Site
							{
								OFFSET -4.083176 0.000000 0.000000 
							}
						}
					}
				}
			}
		}
	}
	JOINT lThigh
	{
		OFFSET 5.308129 -1.633274 1.361059 
		CHANNELS 3 Xrotation Zrotation Yrotation
		JOINT lShin
		{
			OFFSET -2.041588 -20.007561 0.000000 
			CHANNELS 3 Xrotation Zrotation Yrotation
			JOINT lFoot
			{
				OFFSET 0.000000 -19.190928 -1.224953 
				CHANNELS 3 Xrotation Yrotation Zrotation
				End Site
				{
					OFFSET 0.000000 -2.449906 4.627600 
				}
			}
		}
	}
	JOINT rThigh
	{
		OFFSET -5.308129 -1.633274 1.361059 
		CHANNELS 3 Xrotation Zrotation Yrotation
		JOINT rShin
		{
			OFFSET 2.041588 -20.007561 0.000000 
			CHANNELS 3 Xrotation Zrotation Yrotation
			JOINT rFoot
			{
				OFFSET 0.000000 -19.190928 -1.224953 
				CHANNELS 3 Xrotation Yrotation Zrotation
				End Site
				{
					OFFSET 0.000000 -2.449906 4.627600 
				}
			}
		}
	}
}
MOTION
Frames: 13
Frame Time: 0.033333
-0.143778 45.198853 -0.393638 2.089111 -5.009310 -0.774507 0.000000 0.000000 0.000000 9.567632 6.938262 7.772432 22.909050 -1.953106 -0.254092 -27.891958 0.029267 -2.607421 -3.937020 10.722207 24.992992 -84.303802 26.834330 -14.087743 -90.304428 -17.308842 20.659935 -1.525195 -14.655337 -60.658642 14.718698 -11.527068 25.000000 53.424713 21.028040 67.783943 12.559853 -72.803902 -36.294048 3.577226 -1.516232 -82.192017 -18.486029 9.755522 19.181423 121.059761 17.425863 1.095312 -1.461841 17.515657 13.592844 -8.531821 7.554803 3.645148 52.903572 3.032934 4.555906 -24.483553 -17.671682 18.469559 
0.055422 45.552963 -0.879326 6.199629 -5.134945 -1.510106 0.000000 0.000000 0.000000 7.072637 8.150216 8.160190 20.040787 -5.077962 -0.461505 -25.779478 0.566128 -1.796884 -1.668503 10.127369 24.993294 -84.925865 32.003918 -14.903657 -81.892570 -20.731607 23.240406 0.006774 -12.983296 -60.898239 13.875568 -18.056250 24.995144 53.628960 29.402435 65.867470 3.057240 -80.970146 -46.610451 4.014623 -1.207198 -82.255173 -30.983067 8.699048 17.041422 118.581306 17.504681 1.033267 -4.138051 18.753109 22.832998 -7.065852 6.919517 3.383138 49.471127 2.010614 4.045505 -24.776220 -14.762628 22.717636 
0.689130 47.014019 -0.306248 3.393385 -0.682747 -2.851825 0.000000 0.000000 0.000000 9.683189 4.602143 7.211217 18.833502 -9.257008 -0.762582 -22.964725 2.392528 -0.371178 1.027458 6.226923 24.518391 -82.716171 38.306320 -18.726042 -74.425430 -26.420799 27.741856 6.103953 -18.693312 -63.063148 15.433239 -23.496592 24.993738 55.993610 34.081226 65.678406 -44.772583 -87.610138 -91.232971 -4.021714 -1.981208 -83.682182 -28.204241 3.248426 15.845598 104.793915 13.345640 -0.232173 -2.514372 11.615022 10.085734 7.786925 0.595831 1.142730 36.326054 -0.142406 2.263403 -20.589510 -7.967956 26.669477 
1.165524 48.625851 0.202430 2.400147 1.657151 -3.448646 0.000000 0.000000 0.000000 10.045201 2.541062 6.715780 18.147402 -11.365801 -0.907809 -20.205227 3.603461 -0.313110 1.841384 4.279503 24.458822 -83.129440 42.911358 -20.822275 -69.577934 -28.245789 27.657309 8.119601 -24.038774 -64.329559 12.442419 -30.000000 24.999798 65.090897 36.677319 68.873398 -16.219740 -95.403214 -62.608807 -2.190498 -3.903363 -83.004555 -24.353760 -0.117679 15.429254 86.533501 10.526491 -0.870406 -3.032390 6.413991 -4.484892 19.360088 -3.925041 -0.309448 23.722527 0.829323 1.256400 -10.915086 -6.032486 25.798079 
1.295545 49.970669 0.539813 2.421415 1.159449 -3.877739 0.000000 0.000000 0.000000 9.261513 2.201786 6.675105 17.866796 -11.404829 -0.917386 -17.291702 3.505474 0.851602 1.244524 3.647857 24.536491 -85.283119 46.331345 -21.004129 -68.537758 -25.890854 25.762827 7.105103 -30.960367 -64.183144 5.394913 -30.000000 24.995314 74.743576 34.700016 73.373093 -43.195137 -104.562912 -92.007111 -5.145940 -6.217254 -83.115082 -18.948069 -0.080305 16.061792 65.340935 8.911072 -0.804461 -9.091660 7.115625 2.625798 23.177761 -5.419086 -0.785885 21.965891 2.733017 1.536450 -1.367014 -6.482230 23.304682 
1.288594 50.844742 0.844394 2.050460 -0.360164 -4.599702 0.000000 0.000000 0.000000 8.406857 1.600767 6.565112 19.257235 -7.714353 -0.650496 -17.721434 1.248473 2.832848 -0.122228 4.198546 24.678644 -88.872185 47.731586 -17.854774 -71.576080 -19.279179 26.704664 12.371468 -23.236639 -66.357224 -2.179019 -30.000000 22.482246 76.884003 28.468948 75.695862 -45.683964 -112.892181 -95.706703 -6.214685 -3.117766 -83.919556 -9.630872 1.684678 17.311447 39.536003 4.854070 -0.572140 -12.513194 1.813498 7.078698 22.862453 -3.856087 -0.302869 28.499331 0.776089 1.703350 7.789118 -11.200665 16.873247 
1.153381 50.676323 0.704542 3.308598 -1.558246 -4.230135 0.000000 0.000000 0.000000 5.947062 -0.543705 6.172153 21.309235 -0.312499 -0.117239 -19.985785 -2.580107 4.447638 -5.955810 6.003217 24.994968 -93.745621 45.827374 -10.993974 -73.926453 -5.231945 23.237446 12.389010 -22.929688 -66.272858 -7.226575 -30.000000 19.928755 73.125694 20.239557 76.127121 -45.807835 -117.968636 -98.242287 -16.613995 -4.153339 -86.599022 -5.087886 2.880926 17.926500 24.963331 1.333206 -0.536562 -13.840201 0.920763 6.075971 18.032576 -2.333287 0.144454 43.806103 -1.423018 2.704144 7.705254 -12.392636 11.498610 
1.069203 49.865288 0.730505 1.996566 -2.181597 -4.212248 0.000000 0.000000 0.000000 7.246755 -2.118110 5.775108 21.728027 3.398425 0.156554 -19.649971 -1.076343 6.807819 -9.199329 7.465366 24.989700 -93.920822 40.394772 -9.590709 -73.950279 -1.382687 22.483538 10.512778 -21.457436 -65.215683 -9.884880 -28.602694 19.179771 68.961632 8.039770 77.386917 -28.039055 -126.168991 -68.340660 -16.087427 -31.744766 -75.360222 -3.405267 3.382578 18.162235 24.997669 0.667855 -0.691950 -12.022702 5.351065 5.028563 12.639200 -1.600831 0.471317 61.985714 -3.114812 4.057089 7.908143 -15.258387 17.408522 
1.508238 48.022900 -0.108313 7.946517 0.683480 -1.044964 0.000000 0.000000 0.000000 2.516945 -6.255307 5.029742 19.578339 8.241836 0.533096 -19.743990 -3.785640 6.302364 -16.247419 12.869544 24.992706 -95.788414 31.202490 -7.021453 -75.990578 0.914445 22.258078 10.058380 -20.152430 -64.952652 -15.827729 -25.242086 17.063135 65.430916 -5.555343 79.465240 -27.440443 -127.344215 -78.559425 -14.208674 -17.374640 -82.420403 -14.785847 -0.755056 16.254459 36.184357 2.517049 -0.907807 -5.944241 9.153710 11.677605 -4.458019 -6.798872 -0.756623 84.478317 -1.591545 6.308347 6.320692 -18.406132 21.689474 
1.944136 46.305157 -0.758257 9.480415 4.842142 1.480062 0.000000 0.000000 0.000000 2.128646 -11.574917 3.937570 19.132030 11.532144 0.789099 -22.372465 -4.804188 6.379160 -24.036825 16.901621 24.990637 -95.856766 20.027994 -6.404843 -78.919006 2.662427 22.431248 10.309090 -19.123672 -65.081917 -18.303062 -21.361383 17.167479 64.230232 -17.144459 82.641327 138.885788 -56.984711 57.217789 -12.659237 16.848516 -87.091873 -21.062969 -6.533145 14.100097 48.986969 5.128470 -1.006235 -11.468937 14.095262 19.268986 -16.279043 -13.554491 -2.463133 101.333023 -3.309995 7.063277 6.462833 -21.792219 19.854895 
2.421018 45.166656 -1.608652 13.287718 9.291478 4.988007 0.000000 0.000000 0.000000 0.125488 -16.551008 2.984700 18.672260 13.630991 0.956836 -24.328876 -5.254092 4.922831 -29.103907 19.540260 24.989038 -91.030060 5.732717 -8.170140 -82.958458 1.093028 23.158346 8.861966 -16.046354 -64.380081 -19.867662 -19.514553 17.190847 66.461662 -26.934963 88.468544 -21.211475 -109.273117 -71.111420 -4.157958 9.066001 -84.983742 -26.341423 -13.182003 11.892421 56.108368 5.928705 -1.128014 -16.465460 18.209862 24.307444 -30.735582 -20.083149 -3.951468 112.853989 -7.430270 6.700777 4.479591 -20.945993 13.732522 
1.936812 45.164349 -1.460732 10.165242 6.454824 3.204012 0.000000 0.000000 0.000000 2.405437 -14.331574 3.375033 20.226219 14.773063 1.042330 -24.729103 -2.883245 6.238270 -28.173891 19.550508 24.992495 -82.739067 -3.866847 -11.273037 -88.042786 0.438320 19.745665 9.410738 -16.755573 -64.911079 -18.177385 -15.077908 19.346365 67.219872 -30.142437 90.973625 -45.415958 -99.079796 -88.103516 -8.428453 5.500296 -85.908546 -17.790640 -8.436816 13.940168 55.563736 5.860737 -1.143179 -19.495094 12.531134 17.572891 -33.071896 -13.826595 -1.748478 112.658287 -6.336603 6.913871 2.767811 -18.216461 8.336415 
1.258172 46.045151 -0.833905 4.489615 1.725334 3.478219 0.000000 0.000000 0.000000 7.227156 -10.893058 3.916633 21.300398 18.227930 1.318615 -23.314224 -3.407210 6.280459 -29.446136 23.348320 24.994511 -78.523239 -14.777297 -12.392069 -92.160217 3.513705 26.113668 11.521965 -14.966029 -65.815811 -18.702456 -9.300736 21.224901 63.562847 -29.138268 87.731369 66.542168 -74.041985 27.733852 -11.169049 6.401240 -86.744621 -2.868647 -2.685158 16.247595 48.041115 6.964344 -0.552699 -21.038378 6.652439 18.286673 -28.279154 -7.440715 -0.043973 104.927254 -0.741638 7.768662 -0.945802 -15.426829 1.888990 
